<svg version="1.1"
   xmlns="http://www.w3.org/2000/svg" xmlns:xlink="http://www.w3.org/1999/xlink" xmlns:a="http://ns.adobe.com/AdobeSVGViewerExtensions/3.0/"
   x="0px" y="0px" width="585px" height="195px" viewBox="0 0 585 195" overflow="visible" enable-background="new 0 0 585 195"
   xml:space="preserve">
<defs>
</defs>
<text transform="matrix(1 0 0 1 105.5625 184.2383)" fill="#9E724E" font-family="'DINPro-Regular'" font-size="45.2561">Homestyle Kitchen</text>
<path fill="#9E724E" d="M66.242,70.198H23.378v48.282H0V1.584h23.378v46.081h42.864V1.584H89.62V118.48H66.242V70.198z"/>
<path fill="#9E724E" d="M113.349,1.584h74.203v22.363h-51.163v26.09h40.998v21.854h-40.998v24.227h51.163v22.363h-74.203V1.584z"/>
<path fill="#9E724E" d="M400.028,1.584h84.708v22.532h-30.492v94.365h-23.383V24.116h-30.833V1.584z"/>
<path fill="#9E724E" d="M561.15,70.198h-42.864v48.282h-23.378V1.584h23.378v46.081h42.864V1.584h23.378V118.48H561.15V70.198z"/>
<path fill="#9E724E" d="M387.91,94.945c-1.861-3.723-3.414-13.346-6.208-20.175c-2.795-6.831-9.001-10.865-9.001-10.865
  s19.557-2.792,19.557-31.042c0-28.247-27.783-31.506-27.783-31.506l-55.719,0.155v116.712h24.6l0.08-46.249
  c25.142-0.933,25.608,11.795,27.158,15.521c1.556,3.726,4.348,17.694,12.107,26.075c7.761,8.381,22.969,6.828,22.969,6.828
  l4.35-20.488C394.119,99.601,389.774,98.67,387.91,94.945z M357.024,51.334h-23.589V22.27l21.961-0.036
  c0,0,10.942,3.803,10.631,14.355C365.717,47.143,357.024,51.334,357.024,51.334z"/>
<path fill="#9E724E" d="M246.485,0c-28.801,0-43.879,11.691-43.879,40.489v77.933h23.379V92.439l40.999-0.098v26.081h23.379V40.489
  C290.363,11.691,275.286,0,246.485,0z M225.985,70.261V40.489c0-13.55,8.472-17.618,20.5-17.618s20.499,3.896,20.499,17.618v29.771
  H225.985z"/>
</svg>